mtllib beacon.mtl
o TexturedBeacon
usemtl BeaconStripes

# Vertices
# Plinth: y=0-0.4, full 1.4x1.4 footprint
v 0.0   0.0   0.0
v 1.4   0.0   0.0
v 1.4   0.0   1.4
v 0.0   0.0   1.4
v 0.0   0.4   0.0
v 1.4   0.4   0.0
v 1.4   0.4   1.4
v 0.0   0.4   1.4
# Tower: y=0.4-2.4, footprint 0.18-1.22
v 0.18  0.4   0.18
v 1.22  0.4   0.18
v 1.22  0.4   1.22
v 0.18  0.4   1.22
v 0.18  2.4   0.18
v 1.22  2.4   0.18
v 1.22  2.4   1.22
v 0.18  2.4   1.22
# Spire: y=2.4-3.2, base 0.28-1.12, apex at center
v 0.28  2.4   0.28
v 1.12  2.4   0.28
v 1.12  2.4   1.12
v 0.28  2.4   1.12
v 0.70  3.2   0.70

# UV coordinates
vt 0.0  0.0
vt 1.0  0.0
vt 1.0  1.0
vt 0.0  1.0
vt 0.5  1.0

# Normals
vn  0.0  -1.0   0.0
vn  0.0   1.0   0.0
vn  0.0   0.0  -1.0
vn  1.0   0.0   0.0
vn  0.0   0.0   1.0
vn -1.0   0.0   0.0
vn  0.0   0.466 -0.884
vn  0.884  0.466  0.0
vn  0.0   0.466  0.884
vn -0.884  0.466  0.0

# Plinth bottom (-Y)
f 1/1/1 2/2/1 3/3/1
f 1/1/1 3/3/1 4/4/1

# Plinth front (-Z)
f 1/1/3 5/4/3 6/3/3
f 1/1/3 6/3/3 2/2/3

# Plinth right (+X)
f 2/1/4 6/4/4 7/3/4
f 2/1/4 7/3/4 3/2/4

# Plinth back (+Z)
f 4/1/5 3/2/5 7/3/5
f 4/1/5 7/3/5 8/4/5

# Plinth left (-X)
f 1/2/6 4/1/6 8/4/6
f 1/2/6 8/4/6 5/3/6

# Plinth top ring (+Y): 4 strips between plinth edge and tower base
f 5/1/2 9/2/2 10/3/2
f 5/1/2 10/3/2 6/4/2
f 6/1/2 10/2/2 11/3/2
f 6/1/2 11/3/2 7/4/2
f 7/1/2 11/2/2 12/3/2
f 7/1/2 12/3/2 8/4/2
f 8/1/2 12/2/2 9/3/2
f 8/1/2 9/3/2 5/4/2

# Tower front (-Z)
f 9/1/3 13/4/3 14/3/3
f 9/1/3 14/3/3 10/2/3

# Tower right (+X)
f 10/1/4 14/4/4 15/3/4
f 10/1/4 15/3/4 11/2/4

# Tower back (+Z)
f 12/1/5 11/2/5 15/3/5
f 12/1/5 15/3/5 16/4/5

# Tower left (-X)
f 9/2/6 12/1/6 16/4/6
f 9/2/6 16/4/6 13/3/6

# Tower top ring (+Y): 4 strips between tower top and spire base
f 13/1/2 17/2/2 18/3/2
f 13/1/2 18/3/2 14/4/2
f 14/1/2 18/2/2 19/3/2
f 14/1/2 19/3/2 15/4/2
f 15/1/2 19/2/2 20/3/2
f 15/1/2 20/3/2 16/4/2
f 16/1/2 20/2/2 17/3/2
f 16/1/2 17/3/2 13/4/2

# Spire (4 triangular faces, normals slope upward-outward)
f 17/1/7 21/5/7 18/2/7
f 18/1/8 21/5/8 19/2/8
f 19/1/9 21/5/9 20/2/9
f 20/1/10 21/5/10 17/2/10
